<svg xmlns="http://www.w3.org/2000/svg" xmlns:xlink="http://www.w3.org/1999/xlink" width="518" height="132" viewBox="0 0 518 132">
  <defs>
    <filter id="C_RWISE" x="0" y="0" width="518" height="132" filterUnits="userSpaceOnUse">
      <feOffset dy="3" input="SourceAlpha"/>
      <feGaussianBlur stdDeviation="3" result="blur"/>
      <feFlood flood-opacity="0.161"/>
      <feComposite operator="in" in2="blur"/>
      <feComposite in="SourceGraphic"/>
    </filter>
    <filter id="Icon_awesome-car-alt" x="78.517" y="24.937" width="85.056" height="81.524" filterUnits="userSpaceOnUse">
      <feOffset dy="3" input="SourceAlpha"/>
      <feGaussianBlur stdDeviation="3" result="blur-2"/>
      <feFlood flood-opacity="0.161"/>
      <feComposite operator="in" in2="blur-2"/>
      <feComposite in="SourceGraphic"/>
    </filter>
  </defs>
  <g id="Group_3" data-name="Group 3" transform="translate(-348.103 -235)">
    <g transform="matrix(1, 0, 0, 1, 348.1, 235)" filter="url(#C_RWISE)">
      <text id="C_RWISE-2" data-name="C  RWISE" transform="translate(9 97)" fill="#fff" font-size="98" font-family="GillSansMT-Bold, Gill Sans MT" font-weight="700" letter-spacing="0.05em"><tspan x="0" y="0" xml:space="preserve">C  RWISE</tspan></text>
    </g>
    <g transform="matrix(1, 0, 0, 1, 348.1, 235)" filter="url(#Icon_awesome-car-alt)">
      <path id="Icon_awesome-car-alt-2" data-name="Icon awesome-car-alt" d="M61.281,29.038l-1.57-4.648-2.784-8.243C54.536,9.071,48.835,4.5,42.4,4.5H24.657C18.222,4.5,12.52,9.071,10.13,16.146L7.345,24.389l-1.57,4.648C2.406,30.555,0,34.386,0,38.909v7.94a11.663,11.663,0,0,0,2.235,6.936V62.73c0,2.923,2,5.294,4.47,5.294h4.47c2.468,0,4.47-2.371,4.47-5.294V57.436H51.41V62.73c0,2.923,2,5.294,4.47,5.294h4.47c2.468,0,4.47-2.371,4.47-5.294V53.785a11.655,11.655,0,0,0,2.235-6.936v-7.94C67.056,34.386,64.65,30.555,61.281,29.038Zm-42.85-8.959c1.018-3.014,3.484-4.991,6.226-4.991H42.4c2.742,0,5.208,1.977,6.226,4.991l2.784,8.243H15.646l2.784-8.243ZM11.176,46.816c-2.682,0-4.47-2.111-4.47-5.277s1.788-5.277,4.47-5.277,6.706,4.749,6.706,7.916S13.858,46.816,11.176,46.816Zm44.7,0c-2.682,0-6.706.528-6.706-2.639s4.023-7.916,6.706-7.916,4.47,2.111,4.47,5.277-1.788,5.277-4.47,5.277Z" transform="translate(87.52 26.44)" fill="#fff"/>
    </g>
  </g>
</svg>
